<?xml version="1.0" encoding="UTF-8" standalone="no"?>
<!-- Created with Inkscape (http://www.inkscape.org/) -->

<svg
   width="210mm"
   height="297mm"
   viewBox="0 0 210 297"
   version="1.1"
   id="svg1203"
   inkscape:version="1.2.2 (732a01da63, 2022-12-09)"
   sodipodi:docname="logo.svg"
   xmlns:inkscape="http://www.inkscape.org/namespaces/inkscape"
   xmlns:sodipodi="http://sodipodi.sourceforge.net/DTD/sodipodi-0.dtd"
   xmlns="http://www.w3.org/2000/svg"
   xmlns:svg="http://www.w3.org/2000/svg">
  <sodipodi:namedview
     id="namedview1205"
     pagecolor="#ffffff"
     bordercolor="#000000"
     borderopacity="0.25"
     inkscape:showpageshadow="2"
     inkscape:pageopacity="0.0"
     inkscape:pagecheckerboard="0"
     inkscape:deskcolor="#d1d1d1"
     inkscape:document-units="mm"
     showgrid="false"
     inkscape:zoom="2.0510461"
     inkscape:cx="388.82598"
     inkscape:cy="552.40104"
     inkscape:window-width="1920"
     inkscape:window-height="1017"
     inkscape:window-x="-8"
     inkscape:window-y="-8"
     inkscape:window-maximized="1"
     inkscape:current-layer="layer1" />
  <defs
     id="defs1200" />
  <g
     inkscape:groupmode="layer"
     id="layer2"
     inkscape:label="图层 2">
    <path
       id="rect564"
       style="fill:#d40000;stroke-width:0.264583"
       d="m 142.96289,149.32617 c 0,7.63542 0,15.27084 0,22.90625 4.03265,-4.02919 8.06426,-8.05945 12.09375,-12.0918 -4.02949,-4.03235 -8.0611,-8.06259 -12.09375,-12.09179 0,0.42578 0,0.85156 0,1.27734 z" />
    <path
       id="path905"
       style="fill:#ff0000;stroke-width:0.264583"
       d="m 131.99609,138.29297 c -0.27688,3.40668 -1.24124,6.71658 -2.54297,9.86523 1.57106,1.57477 3.14454,3.14713 4.71876,4.71875 0,-4.54036 -10e-6,-9.08073 0,-13.62109 -0.68196,-0.68653 -1.3679,-1.36909 -2.05274,-2.05274 -0.041,0.36329 -0.082,0.72657 -0.12305,1.08985 z" />
    <path
       id="path919"
       style="fill:#ff0000;stroke-width:0.264583"
       d="m 133.11328,139.47461 c 0,4.11458 0,8.22917 0,12.34375 1.52154,1.52663 3.0472,3.04916 4.57031,4.57422 -1.52312,1.52505 -3.04877,3.0476 -4.57031,4.57422 0,7.03906 0,14.07812 0,21.11718 3.6378,-3.63498 7.27377,-7.27181 10.9082,-10.91015 0,-7.35547 0,-14.71094 0,-22.06641 -3.63444,-3.63833 -7.27039,-7.27518 -10.9082,-10.91015 0,0.42578 0,0.85156 0,1.27734 z" />
    <path
       id="path917"
       style="fill:#ff2a2a;stroke-width:0.264583"
       d="m 133.26758,160.81055 c -3.33496,3.33626 -6.67254,6.66992 -10.00586,10.00781 0,7.03906 0,14.07812 0,21.11719 3.63827,-3.63517 7.27513,-7.27176 10.91016,-10.91016 0,-7.03906 -10e-6,-14.07812 0,-21.11719 -0.30144,0.30078 -0.60287,0.60157 -0.9043,0.90235 z" />
    <path
       id="path1585"
       style="fill:#ff5555;stroke-width:0.264583"
       d="m 123.41602,170.66211 c -3.50782,3.50781 -7.01563,7.01562 -10.52344,10.52344 -2.74513,-2.74446 -5.48757,-5.49161 -8.23438,-8.23438 -3.26951,1.36529 -6.72101,2.32158 -10.262706,2.5898 -1.116355,-0.10053 -0.272554,0.48627 0.153732,0.92623 7.364124,7.36282 14.725654,14.72825 22.091394,22.08944 2.56151,-2.55828 5.12145,-5.11815 7.67969,-7.67969 0,-7.03906 0,-14.07812 0,-21.11718 -0.30143,0.30078 -0.60286,0.60156 -0.90429,0.90234 z" />
    <path
       id="path1583"
       style="fill:#ff2a2a;stroke-width:0.264583"
       d="m 85.833984,105.9668 c -3.334958,3.33626 -6.672534,6.66992 -10.005859,10.00781 0,7.03906 0,14.07812 0,21.11719 3.638268,-3.63517 7.275128,-7.27176 10.910156,-10.91016 0,-7.03906 0,-14.07812 0,-21.11719 -0.301432,0.30078 -0.602864,0.60157 -0.904297,0.90235 z" />
    <path
       id="path1581"
       style="fill:#ff5555;stroke-width:0.264583"
       d="m 92.984375,98.816406 c -2.434565,2.435874 -4.871757,4.869144 -7.304687,7.306644 0,7.03906 -10e-7,14.07812 0,21.11718 3.811127,-3.8067 7.618214,-7.61746 11.427734,-11.42578 2.741214,2.74056 5.479768,5.48378 8.222658,8.22266 3.2724,-1.36227 6.72676,-2.31707 10.27062,-2.57917 1.09264,0.10845 0.36379,-0.42372 -0.0807,-0.85587 -7.38721,-7.38591 -14.77182,-14.77443 -22.160655,-22.158711 -0.125,0.124349 -0.25,0.248698 -0.375,0.373047 z" />
    <path
       id="path915"
       style="fill:#ff0000;stroke-width:0.264583"
       d="m 75.828125,145.40039 c 0,4.11458 0,8.22917 0,12.34375 0.681952,0.68653 1.367895,1.36909 2.052734,2.05274 0.268068,-3.25233 0.903333,-6.48497 2.11466,-9.52339 0.05849,-0.53657 0.794091,-1.21539 0.340078,-1.64468 -1.502302,-1.50211 -3.003448,-3.00538 -4.507472,-4.50576 0,0.42578 0,0.85156 0,1.27734 z" />
    <path
       id="path913"
       style="fill:#ff0000;stroke-width:0.264583"
       d="m 75.982422,115.81836 c -3.334312,3.33626 -6.671202,6.66996 -10.003906,10.00781 0,7.35547 0,14.71094 0,22.06641 3.634439,3.63833 7.270398,7.27518 10.908203,10.91015 0,-4.54036 0,-9.08072 0,-13.62109 -1.521539,-1.52663 -3.047196,-3.04916 -4.570313,-4.57422 1.52312,-1.52505 3.048769,-3.0476 4.570313,-4.57422 0,-7.03906 0,-14.07812 0,-21.11718 -0.301433,0.30078 -0.602865,0.60156 -0.904297,0.90234 z" />
    <path
       id="path903"
       style="fill:#d40000;stroke-width:0.264583"
       d="m 66.132812,125.66992 c -3.72949,3.73015 -7.461645,7.45763 -11.189453,11.18946 4.029487,4.03235 8.061104,8.06259 12.09375,12.09179 0,-8.0612 0,-16.12239 0,-24.18359 -0.301432,0.30078 -0.602864,0.60156 -0.904297,0.90234 z" />
  </g>
  <g
     inkscape:label="图层 1"
     inkscape:groupmode="layer"
     id="layer1">
    <path
       id="text678"
       style="font-weight:bold;font-size:69.961px;font-family:sans-serif;-inkscape-font-specification:'sans-serif Bold';fill:#009c9c;stroke-width:5.83007;fill-opacity:1"
       d="m 158.46688,94.964317 c -3.13125,-1.585252 -7.68455,-2.380858 -13.66925,-2.380858 -2.93782,0 -5.87547,0.239239 -8.81329,0.717488 -2.91503,0.455474 -5.02179,0.853783 -6.3199,1.195389 l 1.2e-4,9.257714 1.12715,-9e-5 c 1.00205,-0.38715 2.65323,-0.934 4.95337,-1.63999 2.30015,-0.72876 4.46387,-1.09306 6.49073,-1.09306 3.37052,0 5.67872,-0.30447 7.40952,0.51539 1.73081,0.79708 2.83876,2.96914 2.83876,5.08709 l -2.1e-4,0.20488 c -3.62103,0.20496 -7.11689,0.52386 -10.4874,0.95656 -3.37051,0.4327 -6.1942,1.16165 -8.47158,2.18647 -2.30014,1.02482 -4.0768,2.42555 -5.32935,4.2019 -1.25256,1.77635 -1.87864,4.06478 -1.87864,6.86595 0,3.50715 1.22969,6.38797 3.68925,8.64257 2.45957,2.2546 5.51155,3.38218 9.15535,3.38218 1.54862,0 2.97181,-0.137 4.26991,-0.41029 1.2981,-0.25051 2.55044,-0.64857 3.75745,-1.19514 0.8654,-0.40993 1.78785,-0.96818 2.76712,-1.67416 0.97927,-0.70599 1.79931,-1.30931 2.45975,-1.81033 l -3e-5,4.06498 6.96191,-2.7e-4 z m -15.85524,20.472273 c 1.00204,-0.31884 2.47093,-0.59169 4.40669,-0.81943 1.93577,-0.25051 4.73744,-0.78402 6.39992,-0.92066 l -1.00251,8.3332 c -0.9565,0.81985 -2.07255,1.48057 -3.34788,1.98159 -1.25256,0.50102 -2.49386,0.75152 -3.72365,0.75152 -1.54861,0 -2.68729,-0.10238 -3.41604,-0.30734 -0.72876,-0.22774 -1.35511,-0.56978 -1.87891,-1.02526 -0.54657,-0.45547 -0.88782,-0.93344 -1.02446,-1.43446 -0.13664,-0.50103 -0.20519,-1.15035 -0.20519,-1.94743 0,-1.20701 0.31903,-2.17497 0.9567,-2.90373 0.66043,-0.75153 1.60555,-1.32085 2.83533,-1.708 z"
       transform="matrix(0.97926773,0.31045438,-0.3319175,0.91594436,0,0)"
       sodipodi:nodetypes="cscccccscccscssssccscccccccccsccsscc" />
    <path
       id="text678-2"
       style="font-weight:bold;font-size:69.961px;font-family:sans-serif;-inkscape-font-specification:'sans-serif Bold';fill:#00ffff;stroke-width:5.58565"
       d="m 123.66118,136.17877 c -2.33164,-2.42412 -6.18212,-4.56644 -11.56165,-6.42441 -2.64075,-0.91206 -5.35424,-1.60494 -8.14069,-2.07895 -2.75904,-0.48779 -4.774114,-0.77702 -6.045037,-0.86713 l -2.820447,8.47959 1.013201,0.34984 c 1.018677,-0.0435 2.669499,-0.0318 4.952143,0.0357 2.2896,0.0466 4.34552,0.38465 6.16741,1.01389 3.02971,1.0464 5.19726,1.48411 6.50325,2.77239 1.31295,1.26742 1.6471,3.60087 1.00182,5.5408 l -0.0626,0.18759 c -3.31731,-0.93643 -6.55683,-1.72964 -9.71835,-2.3797 -3.16152,-0.65006 -5.921769,-0.85901 -8.281093,-0.62736 -2.379785,0.22459 -4.403551,0.95601 -6.070646,2.19419 -1.667104,1.23817 -2.927092,3.13988 -3.780527,5.70559 -1.068526,3.21236 -0.840883,6.23279 0.683057,9.06146 1.523949,2.82867 3.923774,4.80898 7.199116,5.94021 1.392025,0.48077 2.713042,0.79713 3.963142,0.94981 1.243161,0.17355 2.490141,0.19774 3.741621,0.0718 0.90279,-0.1068 1.90204,-0.33175 2.99738,-0.67437 1.09534,-0.34263 2.01627,-0.64065 2.76258,-0.89452 l -1.23851,3.72329 6.25801,2.1611 z m -20.48927,13.82913 c 0.99785,0.0191 2.40134,0.22516 4.21074,0.61753 1.81635,0.37151 4.49726,0.75264 6.03327,1.14361 l -3.44002,7.32151 c -1.10957,0.45399 -2.31406,0.71269 -3.61308,0.77566 -1.27855,0.07 -2.47065,-0.0859 -3.57608,-0.46767 -1.39202,-0.48077 -2.38436,-0.92806 -2.976979,-1.34203 -0.585683,-0.43485 -1.044487,-0.94259 -1.376549,-1.5224 -0.352533,-0.58687 -0.513652,-1.13061 -0.483829,-1.63193 0.02982,-0.50134 0.166036,-1.11736 0.408883,-1.84744 0.367741,-1.10556 0.949419,-1.89311 1.744644,-2.36265 0.82261,-0.48332 1.84562,-0.71137 3.069,-0.68419 z"
       sodipodi:nodetypes="cscccccscccscssssccscccccccccsccsscc" />
    <path
       id="path1681"
       style="font-weight:bold;font-size:69.961px;font-family:sans-serif;-inkscape-font-specification:'sans-serif Bold';fill:#25dada;stroke-width:5.83007;fill-opacity:1"
       d="M 158.46688 94.964317 L 159.37762 132.03869 L 164.61088 132.03871 L 164.61078 105.94 C 164.61078 101.3397 163.05091 97.969644 159.93091 95.828913 C 159.48489 95.517352 158.99367 95.23101 158.46688 94.964317 z "
       transform="matrix(0.97926773,0.31045438,-0.3319175,0.91594436,0,0)" />
  </g>
</svg>
